<svg width="180" height="24" viewBox="0 0 180 24" fill="none" xmlns="http://www.w3.org/2000/svg">
<path fill-rule="evenodd" clip-rule="evenodd" d="M30.7872 21.1592L29.3878 20.0676V21.2012L4.54811 3.33061H5.94752L3.90437 1.9312H0L1.84723 3.26064L29.6397 23.1743L30.7872 24V20.4035L5.00991 1.86122L2.42099 0H21.2711L30.2134 5.70962V7.52886L30.7872 7.89271V21.1592ZM31.0391 21.1592L32.5085 20.0676V21.2012L57.2921 3.33061H55.9767L57.9918 1.9312H61.7843L59.937 3.26064L32.1866 23.1743L31.0391 24V20.4035L56.8303 1.86122L59.4192 0H40.5831L31.6268 5.70962V7.52886L31.0531 7.89271L31.0391 21.1592Z" fill="#88162D"/>
<path fill-rule="evenodd" clip-rule="evenodd" d="M116.306 0.209978H125.318V1.94526C125.318 3.34467 123.722 3.7645 122.659 3.7505H116.306C110.876 3.7505 111.058 11.8251 116.306 11.8391H124.702L124.688 15.3937H116.292C106.076 15.3937 106.356 0.126013 116.306 0.209978ZM150.997 4.40823H160.933V15.3937H157.714V12.3709H148.618V15.3937H145.371V10.8316C145.371 6.3954 147.946 4.36625 150.969 4.36625L150.997 4.40823ZM157.714 9.46012C157.714 7.17907 157.714 8.36858 157.714 6.73126H151.459C151.083 6.69934 150.705 6.74983 150.351 6.8792C149.997 7.00857 149.676 7.21369 149.409 7.48024C149.142 7.74679 148.937 8.06833 148.808 8.42239C148.679 8.77645 148.628 9.15449 148.66 9.5301L157.714 9.46012ZM95.4682 18.2904H85.9102V15.3937H94.1527C95.902 15.3937 96.0419 15.5476 96.0419 14.0782H86.1061C84.0769 14.0782 82.6915 12.6788 82.6915 9.87995V4.28228H85.9102V8.97033C85.9102 10.6776 86.1481 11.1394 87.8274 11.1394H96.0419V5.69569C96.0419 4.29628 97.7632 4.29628 99.2606 4.29628V14.554C99.3065 15.0267 99.2513 15.5037 99.0985 15.9533C98.9457 16.403 98.6989 16.8149 98.3746 17.1618C98.0502 17.5086 97.6557 17.7824 97.2173 17.965C96.7789 18.1475 96.3067 18.2346 95.832 18.2205L95.4682 18.2904ZM75.0927 0.209978H63.8973V15.3937H67.4379V11.1954H75.1766C76.6353 11.1954 78.0341 10.616 79.0655 9.58457C80.0969 8.55318 80.6764 7.15431 80.6764 5.69569C80.6764 4.23708 80.0969 2.83821 79.0655 1.80681C78.0341 0.775416 76.6353 0.195984 75.1766 0.195984L75.0927 0.209978ZM75.0927 7.65488H67.3679V3.7645H75.0927C75.3711 3.72341 75.6551 3.74279 75.9254 3.82134C76.1957 3.89988 76.4459 4.03573 76.6589 4.21966C76.872 4.40358 77.0429 4.63124 77.1601 4.88716C77.2772 5.14308 77.3379 5.42123 77.3379 5.70269C77.3379 5.98415 77.2772 6.2623 77.1601 6.51822C77.0429 6.77414 76.872 7.0018 76.6589 7.18572C76.4459 7.36964 76.1957 7.5055 75.9254 7.58404C75.6551 7.66259 75.3711 7.68197 75.0927 7.64088V7.65488ZM166.629 15.3937H163.396V5.69569C163.396 4.29628 164.949 4.29628 166.629 4.29628V9.41814H176.746V5.69569C176.83 4.42222 178.356 4.29628 179.979 4.29628V15.3937H176.746V12.3709H166.629V15.3937ZM130.244 4.35225C128.62 4.35225 127.053 4.35225 127.025 5.75167V15.4636H130.286V12.3709L134.61 10.7616L139.256 15.3937H143.636L137.801 9.5161C139.2 8.97033 140.599 8.45254 141.999 7.93476C143.678 7.33301 143.664 6.70327 143.664 5.49977V4.36625L130.286 9.41814V4.36625L130.244 4.35225ZM101.612 9.41814H106.468V12.3709H101.612V9.41814Z" fill="#88162D"/>
</svg>
